<?xml version="1.0" encoding="UTF-8"?>
<!-- Trà My Chatbot Logo - Nhà hàng Ẩm thực Phương Nam -->
<svg viewBox="0 0 64 64" fill="none" xmlns="http://www.w3.org/2000/svg">
    <!-- Nón lá Việt Nam -->
    <ellipse cx="32" cy="18" rx="22" ry="8" fill="#fff5e6" stroke="#fbbf24" stroke-width="1.5"/>
    <path d="M10 18 L32 4 L54 18" fill="#fef3c7" stroke="#fbbf24" stroke-width="1.5" stroke-linejoin="round"/>
    <line x1="32" y1="4" x2="32" y2="18" stroke="#fbbf24" stroke-width="1"/>
    
    <!-- Khuôn mặt -->
    <circle cx="32" cy="36" r="14" fill="#fef3c7"/>
    
    <!-- Tóc đen -->
    <path d="M18 32 Q18 24 26 22 Q32 20 38 22 Q46 24 46 32 Q46 28 44 26 Q40 22 32 22 Q24 22 20 26 Q18 28 18 32" fill="#1c1917"/>
    
    <!-- Mắt -->
    <ellipse cx="27" cy="35" rx="2" ry="2.5" fill="#1c1917"/>
    <ellipse cx="37" cy="35" rx="2" ry="2.5" fill="#1c1917"/>
    <!-- Ánh sáng mắt -->
    <circle cx="26" cy="34" r="0.8" fill="white"/>
    <circle cx="36" cy="34" r="0.8" fill="white"/>
    
    <!-- Má hồng -->
    <ellipse cx="23" cy="39" rx="3" ry="2" fill="#fca5a5" opacity="0.5"/>
    <ellipse cx="41" cy="39" rx="3" ry="2" fill="#fca5a5" opacity="0.5"/>
    
    <!-- Miệng cười -->
    <path d="M28 42 Q32 46 36 42" stroke="#dc2626" stroke-width="1.5" fill="none" stroke-linecap="round"/>
    
    <!-- Áo dài cam -->
    <path d="M22 50 Q32 48 42 50 L44 60 L20 60 Z" fill="#ea580c"/>
    <path d="M30 50 L30 60 M34 50 L34 60" stroke="#c2410c" stroke-width="0.5"/>
</svg>
